<svg width="374" height="59" viewBox="0 0 374 59" fill="none" xmlns="http://www.w3.org/2000/svg">
<path d="M46.3701 1.96019V8.50014H27.3217V56.8584H19.5484V8.50014H0.5V1.96019H46.3701Z" fill="#0E0E0E"/>
<path d="M129.769 27.111C133.36 27.111 136.195 26.4134 138.273 25.0182C140.377 23.623 141.429 21.1067 141.429 17.4692C141.429 13.5577 139.966 10.8919 137.042 9.47179C135.477 8.72437 133.386 8.35066 130.769 8.35066H112.067V27.111H129.769ZM104.409 1.96019H130.577C134.887 1.96019 138.44 2.57059 141.236 3.79138C146.547 6.1333 149.202 10.4559 149.202 16.7592C149.202 20.0478 148.497 22.7385 147.086 24.8313C145.7 26.9241 143.751 28.6058 141.236 29.8764C143.443 30.7484 145.097 31.8945 146.201 33.3146C147.329 34.7347 147.958 37.0392 148.086 40.2282L148.355 47.5904C148.432 49.6831 148.612 51.2403 148.894 52.2617C149.356 54.0057 150.177 55.1269 151.357 55.6251V56.8584H141.968C141.711 56.385 141.506 55.7746 141.352 55.0272C141.198 54.2798 141.07 52.8348 140.967 50.6922L140.505 41.5362C140.326 37.9486 138.953 35.5444 136.388 34.3236C134.925 33.6509 132.629 33.3146 129.499 33.3146H112.067V56.8584H104.409V1.96019Z" fill="#0E0E0E"/>
<path d="M217.572 1.99485H226.616L255.169 46.4665V1.99485H262.442V56.893H253.861L224.884 12.4588V56.893H217.572V1.99485Z" fill="#0E0E0E"/>
<path d="M315.662 1.99485V8.53479H296.614V56.893H288.84V8.53479H269.792V1.99485H315.662Z" fill="#0E0E0E"/>
<path d="M345.716 0.5C355.696 0.5 363.084 3.61426 367.882 9.84278C371.627 14.701 373.5 20.9171 373.5 28.491C373.5 36.6877 371.358 43.5017 367.074 48.933C362.045 55.311 354.875 58.5 345.562 58.5C336.865 58.5 330.029 55.7096 325.052 50.1289C320.613 44.7474 318.394 37.9459 318.394 29.7242C318.394 22.2998 320.293 15.9467 324.09 10.6649C328.964 3.88832 336.173 0.5 345.716 0.5ZM346.486 51.8479C353.233 51.8479 358.107 49.506 361.109 44.8222C364.136 40.1134 365.65 34.707 365.65 28.6031C365.65 22.1503 363.905 16.9558 360.416 13.0193C356.953 9.0829 352.207 7.11469 346.178 7.11469C340.329 7.11469 335.557 9.07045 331.863 12.982C328.169 16.8686 326.321 22.6113 326.321 30.2101C326.321 36.2891 327.899 41.4214 331.055 45.607C334.236 49.7676 339.38 51.8479 346.486 51.8479Z" fill="#0E0E0E"/>
<path fill-rule="evenodd" clip-rule="evenodd" d="M164.771 11.9983C162.622 9.01079 160.992 5.64186 159.883 1.89157H168.244C168.93 3.64074 169.775 5.27982 170.781 6.80882C173.966 11.5838 179.115 13.9712 186.229 13.9712C192.984 13.9712 197.864 11.2835 200.869 5.90816C201.594 4.61513 202.232 3.27626 202.784 1.89157H211.123C210.077 5.08534 208.649 7.99679 206.84 10.6259C203.123 16.031 198.236 19.4404 192.18 20.8542C189.753 20.2727 187.114 19.9819 184.265 19.9819C181.94 19.9819 179.755 20.212 177.707 20.6723C180.059 21.2944 182.591 21.6054 185.305 21.6054C187.743 21.6054 190.035 21.355 192.18 20.8542C198.264 22.3115 203.022 25.5948 206.455 30.7041C210.205 36.2796 212.079 43.4134 212.079 52.1055C212.079 53.7376 212.015 55.3219 211.886 56.8584H203.989C204.143 55.3578 204.22 53.8164 204.22 52.2342C204.22 44.8287 202.474 38.8672 198.981 34.3496C195.514 29.832 190.763 27.5732 184.727 27.5732C178.871 27.5732 174.094 29.8177 170.396 34.3067C166.697 38.7671 164.848 45.3577 164.848 54.0784C164.848 55.0251 164.877 55.9517 164.936 56.8584H157.009C156.944 55.7695 156.912 54.657 156.912 53.5209C156.912 45.0003 158.813 37.7092 162.614 31.6476C166.307 25.7624 171.338 22.104 177.707 20.6723C172.513 19.2983 168.201 16.407 164.771 11.9983Z" fill="#ED7233"/>
<path d="M192.18 20.8542C189.753 20.2727 187.114 19.9819 184.265 19.9819C181.94 19.9819 179.755 20.212 177.707 20.6723C180.059 21.2944 182.591 21.6054 185.305 21.6054C187.743 21.6054 190.035 21.355 192.18 20.8542Z" fill="#ED7233"/>
<path d="M79.154 34.2374L71.1158 9.71262L62.573 34.2374H79.154ZM67.3671 1.47471H75.4774L94.6898 56.9861H86.8318L81.461 40.3591H60.5184L54.7871 56.9861H47.4338L67.3671 1.47471Z" fill="#0E0E0E"/>
</svg>
