<svg xmlns="http://www.w3.org/2000/svg" width="152" height="24" viewBox="0 0 152 24" fill="none"><path d="M18.6924 1.07904V3.67247H10.93V22.849H7.76236V3.67247H0V1.07904H18.6924Z" fill="#F9F7F1"></path><path d="M52.6779 11.0526C54.1415 11.0526 55.2967 10.776 56.1435 10.2227C57.0008 9.66946 57.4294 8.67161 57.4294 7.22917C57.4294 5.67805 56.8335 4.62092 55.6417 4.05778C55.004 3.76139 54.152 3.61319 53.0857 3.61319H45.4644V11.0526H52.6779ZM42.3438 1.07904H53.0072C54.7636 1.07904 56.2115 1.32109 57.351 1.8052C59.5151 2.7339 60.5971 4.44803 60.5971 6.9476C60.5971 8.25172 60.3096 9.31873 59.7346 10.1486C59.1701 10.9785 58.3756 11.6454 57.351 12.1493C58.2501 12.4951 58.9244 12.9495 59.3739 13.5127C59.8339 14.0758 60.0901 14.9897 60.1423 16.2543L60.2521 19.1738C60.2835 20.0037 60.3567 20.6211 60.4716 21.0262C60.6598 21.7178 60.9944 22.1624 61.4753 22.36V22.849H57.649C57.5444 22.6613 57.4608 22.4193 57.3981 22.1229C57.3353 21.8265 57.2831 21.2534 57.2413 20.4038L57.0531 16.773C56.9799 15.3503 56.4206 14.3969 55.3752 13.9128C54.7793 13.6461 53.8436 13.5127 52.5682 13.5127H45.4644V22.849H42.3438V1.07904Z" fill="#F9F7F1"></path><path d="M88.4584 1.09278H92.1436L103.779 18.7281V1.09278H106.743V22.8628H103.246L91.4379 5.24227V22.8628H88.4584V1.09278Z" fill="#F9F7F1"></path><path d="M128.431 1.09278V3.68621H120.668V22.8628H117.501V3.68621H109.738V1.09278H128.431Z" fill="#F9F7F1"></path><path d="M140.678 0.5C144.745 0.5 147.756 1.73497 149.71 4.2049C151.237 6.13144 152 8.59643 152 11.5999C152 14.8503 151.127 17.5524 149.381 19.7062C147.332 22.2354 144.41 23.5 140.615 23.5C137.071 23.5 134.285 22.3935 132.257 20.1804C130.448 18.0464 129.544 15.3492 129.544 12.0889C129.544 9.14476 130.318 6.62543 131.865 4.53093C133.851 1.84364 136.789 0.5 140.678 0.5ZM140.992 20.8621C143.741 20.8621 145.727 19.9334 146.951 18.076C148.184 16.2088 148.801 14.0649 148.801 11.6443C148.801 9.08548 148.09 7.02556 146.668 5.46456C145.257 3.90357 143.323 3.12307 140.866 3.12307C138.483 3.12307 136.538 3.89863 135.033 5.44974C133.527 6.99098 132.774 9.26826 132.774 12.2816C132.774 14.6922 133.417 16.7274 134.703 18.3872C136 20.0372 138.096 20.8621 140.992 20.8621Z" fill="#F9F7F1"></path><path fill-rule="evenodd" clip-rule="evenodd" d="M66.9416 5.05969C66.0657 3.87497 65.4017 2.53902 64.9495 1.05183H68.357C68.6363 1.74546 68.9808 2.39545 69.3906 3.00177C70.6884 4.89528 72.7868 5.84204 75.6859 5.84204C78.4385 5.84204 80.427 4.77623 81.6516 2.64461C81.9471 2.13186 82.2072 1.60093 82.432 1.05183H85.8302C85.4039 2.31832 84.8222 3.47286 84.0849 4.51545C82.5702 6.65883 80.5789 8.01084 78.111 8.57149C77.1218 8.34089 76.0466 8.22559 74.8853 8.22559C73.9382 8.22559 73.0474 8.31684 72.213 8.49936C73.1714 8.74604 74.2034 8.86939 75.3092 8.86939C76.3029 8.86939 77.2369 8.77009 78.111 8.57149C80.5901 9.14938 82.5291 10.4514 83.928 12.4775C85.456 14.6885 86.2201 17.5174 86.2201 20.9643C86.2201 21.6115 86.1938 22.2397 86.1411 22.849H82.923C82.986 22.254 83.0175 21.6427 83.0175 21.0153C83.0175 18.0786 82.3058 15.7146 80.8824 13.9231C79.4695 12.1317 77.5333 11.2359 75.0737 11.2359C72.6875 11.2359 70.7408 12.126 69.2337 13.9061C67.7266 15.6749 66.973 18.2884 66.973 21.7466C66.973 22.122 66.9849 22.4895 67.0086 22.849H63.7784C63.7521 22.4172 63.739 21.976 63.739 21.5255C63.739 18.1467 64.5135 15.2554 66.0625 12.8516C67.5673 10.5179 69.6174 9.0671 72.213 8.49936C70.0963 7.95451 68.3392 6.80795 66.9416 5.05969Z" fill="#ED7233"></path><path d="M78.111 8.57149C77.1218 8.34089 76.0466 8.22559 74.8853 8.22559C73.9382 8.22559 73.0474 8.31684 72.213 8.49936C73.1714 8.74604 74.2034 8.86939 75.3092 8.86939C76.3029 8.86939 77.2369 8.77009 78.111 8.57149Z" fill="#ED7233"></path><path d="M32.052 13.8786L28.7764 4.15328L25.2952 13.8786H32.052ZM27.2488 0.886522H30.5538L38.383 22.8997H35.1808L32.9921 16.3062H24.4579L22.1224 22.8997H19.1258L27.2488 0.886522Z" fill="#F9F7F1"></path></svg>